<?xml version="1.0" encoding="UTF-8" standalone="no"?>
<!-- Created with Inkscape (http://www.inkscape.org/) -->

<svg
   xmlns:dc="http://purl.org/dc/elements/1.1/"
   xmlns:cc="http://creativecommons.org/ns#"
   xmlns:rdf="http://www.w3.org/1999/02/22-rdf-syntax-ns#"
   xmlns:svg="http://www.w3.org/2000/svg"
   xmlns="http://www.w3.org/2000/svg"
   xmlns:sodipodi="http://sodipodi.sourceforge.net/DTD/sodipodi-0.dtd"
   xmlns:inkscape="http://www.inkscape.org/namespaces/inkscape"
   width="744.09448819"
   height="1052.3622047"
   id="svg2"
   version="1.1"
   inkscape:version="0.47pre4 r22446"
   sodipodi:docname="logo2.svg">
  <defs
     id="defs4">
    <marker
       inkscape:stockid="Arrow1Lstart"
       orient="auto"
       refY="0.0"
       refX="0.0"
       id="Arrow1Lstart"
       style="overflow:visible">
      <path
         id="path3727"
         d="M 0.0,0.0 L 5.0,-5.0 L -12.5,0.0 L 5.0,5.0 L 0.0,0.0 z "
         style="fill-rule:evenodd;stroke:#000000;stroke-width:1.0pt;marker-start:none"
         transform="scale(0.8) translate(12.5,0)" />
    </marker>
    <inkscape:perspective
       sodipodi:type="inkscape:persp3d"
       inkscape:vp_x="0 : 526.18109 : 1"
       inkscape:vp_y="0 : 1000 : 0"
       inkscape:vp_z="744.09448 : 526.18109 : 1"
       inkscape:persp3d-origin="372.04724 : 350.78739 : 1"
       id="perspective10" />
  </defs>
  <sodipodi:namedview
     id="base"
     pagecolor="#ffffff"
     bordercolor="#666666"
     borderopacity="1.0"
     inkscape:pageopacity="0.0"
     inkscape:pageshadow="2"
     inkscape:zoom="1.1402393"
     inkscape:cx="357.5766"
     inkscape:cy="557.29606"
     inkscape:document-units="px"
     inkscape:current-layer="layer1"
     showgrid="false"
     inkscape:window-width="1280"
     inkscape:window-height="746"
     inkscape:window-x="0"
     inkscape:window-y="0"
     inkscape:window-maximized="1" />
  <metadata
     id="metadata7">
    <rdf:RDF>
      <cc:Work
         rdf:about="">
        <dc:format>image/svg+xml</dc:format>
        <dc:type
           rdf:resource="http://purl.org/dc/dcmitype/StillImage" />
        <dc:title></dc:title>
      </cc:Work>
    </rdf:RDF>
  </metadata>
  <g
     inkscape:label="Layer 1"
     inkscape:groupmode="layer"
     id="layer1">
    <path
       sodipodi:type="arc"
       style="fill:none;stroke:#000000;stroke-width:36.4672959;stroke-miterlimit:4;stroke-opacity:1;stroke-dasharray:none;marker-start:none;stroke-dashoffset:0"
       sodipodi:cx="395.71429"
       sodipodi:cy="595.2193"
       sodipodi:rx="218.57143"
       sodipodi:ry="208.57143"
       d="m 450.91071,393.40801 a 218.57143,208.57143 0 1 1 -149.00242,13.4254 l 93.806,188.38589 z"
       transform="matrix(0.80361564,0,0,0.84214515,54.045045,24.920045)"
       sodipodi:start="4.9676858"
       sodipodi:end="10.551992" />
    <path
       sodipodi:type="arc"
       style="fill:#ffffff;fill-opacity:1;stroke:#fafafa;stroke-width:29.99999809;stroke-linecap:round;stroke-linejoin:bevel;stroke-miterlimit:4;stroke-opacity:1;stroke-dasharray:none;stroke-dashoffset:0"
       id="path4356"
       sodipodi:cx="377.55231"
       sodipodi:cy="523.52582"
       sodipodi:rx="97.786484"
       sodipodi:ry="100.85602"
       d="m 475.33879,523.52582 a 97.786484,100.85602 0 1 1 -195.57297,0 97.786484,100.85602 0 1 1 195.57297,0 z"
       transform="matrix(1.4227968,0,0,1.3794942,-164.88994,-196.48249)" />
    <g
       style="font-size:600px;font-style:normal;font-variant:normal;font-weight:bold;font-stretch:normal;fill:#000000;fill-opacity:1;stroke:#fafafa;font-family:Penguin Attack;-inkscape-font-specification:Penguin Attack Bold;stroke-opacity:1;stroke-linejoin:bevel;stroke-width:9;stroke-miterlimit:4;stroke-dasharray:none"
       id="text3590">
      <path
         style="font-family:Penguin Attack;-inkscape-font-specification:Penguin Attack Bold;stroke:#fafafa;stroke-opacity:1;stroke-width:9;stroke-miterlimit:4;stroke-dasharray:none;stroke-linejoin:bevel"
         d="m 393.0625,293.21875 c -27.593,1.20794 -54.95415,13.93027 -72.875,34.90625 -11.29383,12.48081 -16.48821,31.31868 -9.125,47.03125 6.53923,15.59605 20.51038,25.785 32.21875,37.3125 7.1693,-6.01323 13.30475,-12.85102 19.90625,-19.4375 C 354.48544,383.1761 339.45178,377.38588 337,363.09375 334.4357,347.28867 347.32157,334.757 359.78125,327.5 c 13.00731,-7.1582 29.19224,-12.21108 43.65625,-7.03125 5.78304,2.11602 7.10992,8.95726 4.78125,13.96875 -3.68558,11.74771 -9.82184,24.22071 -20.21875,31.09375 -3.53019,2.00849 -5.71508,-2.05677 -4.96875,-5.15625 -0.22814,-11.10451 3.14578,-21.7969 3.15625,-32.875 -13.05073,8.28936 -26.1243,16.5428 -39.1875,24.8125 -3.96055,24.48482 21.95407,48.88241 46.03125,41.21875 18.31064,-7.02104 29.26947,-25.3193 36.60898,-42.62085 3.66057,-11.19676 8.81895,-23.50493 5.79727,-35.37915 -5.8608,-14.04482 -21.78841,-20.53212 -36,-22.15625 -2.11983,-0.18212 -4.24834,-0.23081 -6.375,-0.15625 z m -27.65625,140.3125 c -17.53372,0.49104 -29.80857,16.07617 -37.08901,30.47958 -6.5488,12.87382 -10.37215,26.94605 -13.12974,41.08292 9.17199,1.57332 18.32804,3.23897 27.5,4.8125 2.78711,-15.82062 2.82401,-34.51652 15.5625,-46.0625 2.80462,-1.41973 7.2542,-4.98077 10.1875,-2.65625 6.78982,13.3964 5.77615,29.1785 6.82777,43.87488 0.56805,49.04189 -2.21136,98.44376 -11.45277,146.56262 -2.0001,7.04071 -2.59568,15.79519 -9.65625,19.875 16.8572,2.43282 34.04531,0.13275 51.03101,0.43078 7.95104,-0.0832 15.91967,-0.16615 23.84399,0.60047 -11.5582,-11.02486 -9.40778,-28.21224 -9.63197,-42.78048 0.78221,-48.34488 0.417,-97.41351 -10.64928,-144.59452 -5.12533,-18.19785 -11.95661,-38.7403 -29.28125,-48.6875 -4.31019,-2.24458 -9.21821,-3.15249 -14.0625,-2.9375 z"
         id="path3709" />
    </g>
  </g>
</svg>
